 <svg xmlns="http://www.w3.org/2000/svg" fill="none" id="Capa_2" data-name="Capa 2" viewBox="0 0 45.25 61.75">
    <g id="Capa_1-2" data-name="Capa 1">
    
        <path fill="#967f2e" d="M0 58.25h45.25v3.5H0zM30.25 0H15C6.72 0 0 6.72 0 15v41.4h45.25V15c0-8.28-6.72-15-15-15Zm11.76 53.64H24v-5.26h2.62c10.87 0 8.25-10.12 8.25-10.12H31v3.88c0 2.75-4.25 3.25-4.25 3.25H24V28.13h-3v17.26h-1.37c-4.12 0-5.12-3.12-5.12-3.12V13.12c0-5 4.25-4.62 4.25-4.62h8.12c3.37 0 4.25 2.12 4.25 2.12v5.75h3.75v-3.42c0-4.46-3.62-8.08-8.08-8.08h-8.21c-4.46 0-7.58 3.62-7.58 8.08v29.17c0 6 6.5 6.25 6.5 6.25h3.5v5.26H3.46v-40.2c0-9.99 10.12-10.85 10.12-10.85h16.89c9.1 0 11.54 10.88 11.54 10.88v40.17Z" class="cls-1"
        />
    
        <path fill="#967f2e" d="M27.82 20.76c-.23-.9-.8-1.48-1.69-1.74s-1.44-3.27-3.16-3.67c-.05-.01-.1-.01-.15-.02-.06 0-.12-.02-.19-.02-.06 0-.13.01-.19.02-.05 0-.1 0-.15.02-1.73.4-3.16 3.67-3.16 3.67s.02.01.03.02c-.85.23-1.5.79-1.72 1.74 0 0-.04.62.02 1.06 0 0 .06 2.18 3.34 5.06h3.85s2.75-2.85 3.17-5.06c.06-.45.01-1.07.01-1.07Zm-5.78 4.2v.17c-.26-.12-.49-.23-.72-.35-.67-.36-1.29-.8-1.77-1.4-.47-.58-.73-1.24-.69-2 .01-.18.04-.36.1-.52.14-.41.44-.63.87-.65.51-.03.97.15 1.39.41.24.15.46.33.63.56.11.15.18.32.18.52v3.26Zm.57-4.85c-.25-.38-.61-.63-.97-.88s-.74-.48-1.13-.74c.5-.21.96-.47 1.34-.85.39-.38.65-.84.76-1.38.26 1.16 1.08 1.79 2.12 2.23-.75.5-1.56.89-2.12 1.62Zm3.11 3.25c-.42.53-.94.95-1.53 1.28-.28.16-.57.29-.85.43-.04.02-.08.03-.13.05v-3.46c0-.12.05-.24.09-.35.02-.05.06-.1.1-.15.46-.54 1.05-.87 1.75-.94.72-.08 1.16.32 1.23 1.07.07.78-.18 1.47-.66 2.08Z" 
        />
    </g>

    <style>
        path { fill: #967f2e; }
        @media (prefers-color-scheme: dark) {
            path { fill: #fff0e5; }
        }
    </style>
 </svg>